<mxfile host="app.diagrams.net" modified="2020-11-22T09:54:59.176Z" agent="5.0 (Windows NT 10.0; WOW64) AppleWebKit/537.36 (KHTML, like Gecko) Chrome/85.0.4183.83 Safari/537.36" etag="XJk_OsAUNAk_9m2rM0pQ" version="13.10.0" type="github">
  <diagram name="Page-1" id="929967ad-93f9-6ef4-fab6-5d389245f69c">
    <mxGraphModel dx="1422" dy="762" grid="1" gridSize="10" guides="1" tooltips="1" connect="1" arrows="1" fold="1" page="1" pageScale="1.5" pageWidth="1169" pageHeight="826" background="none" math="0" shadow="0">
      <root>
        <mxCell id="0" style=";html=1;" />
        <mxCell id="1" style=";html=1;" parent="0" />
        <mxCell id="1672d66443f91eb5-23" value="Title" style="text;strokeColor=none;fillColor=none;html=1;fontSize=24;fontStyle=1;verticalAlign=middle;align=center;" parent="1" vertex="1">
          <mxGeometry x="120" y="40" width="1510" height="40" as="geometry" />
        </mxCell>
        <mxCell id="R-IY0XC0HMATTLStd_am-1" value="&lt;br&gt;&lt;br&gt;&lt;br&gt;服务容器&lt;br&gt;Container" style="shape=rect;html=1;whiteSpace=wrap;align=center;" vertex="1" parent="1">
          <mxGeometry x="720" y="480" width="160" height="80" as="geometry" />
        </mxCell>
        <mxCell id="R-IY0XC0HMATTLStd_am-2" value="服务消费者&lt;br&gt;Consumer" style="shape=rect;html=1;whiteSpace=wrap;align=center;" vertex="1" parent="1">
          <mxGeometry x="320" y="480" width="160" height="80" as="geometry" />
        </mxCell>
        <mxCell id="R-IY0XC0HMATTLStd_am-3" value="注册中心&lt;br&gt;Registry" style="shape=rect;html=1;whiteSpace=wrap;align=center;" vertex="1" parent="1">
          <mxGeometry x="530" y="250" width="160" height="80" as="geometry" />
        </mxCell>
        <mxCell id="R-IY0XC0HMATTLStd_am-4" value="监控中心&lt;br&gt;Monitor" style="shape=rect;html=1;whiteSpace=wrap;align=center;" vertex="1" parent="1">
          <mxGeometry x="520" y="640" width="160" height="80" as="geometry" />
        </mxCell>
        <mxCell id="R-IY0XC0HMATTLStd_am-6" value="4. 服务调用" style="edgeStyle=none;html=1;endArrow=open;endSize=12;verticalAlign=bottom;entryX=0;entryY=0.5;entryDx=0;entryDy=0;" edge="1" parent="1" target="R-IY0XC0HMATTLStd_am-1">
          <mxGeometry width="160" relative="1" as="geometry">
            <mxPoint x="480" y="520" as="sourcePoint" />
            <mxPoint x="640" y="520" as="targetPoint" />
          </mxGeometry>
        </mxCell>
        <mxCell id="R-IY0XC0HMATTLStd_am-9" value="" style="endArrow=classic;html=1;entryX=0;entryY=0.5;entryDx=0;entryDy=0;" edge="1" parent="1" target="R-IY0XC0HMATTLStd_am-3">
          <mxGeometry width="50" height="50" relative="1" as="geometry">
            <mxPoint x="370" y="480" as="sourcePoint" />
            <mxPoint x="420" y="430" as="targetPoint" />
            <Array as="points" />
          </mxGeometry>
        </mxCell>
        <mxCell id="R-IY0XC0HMATTLStd_am-12" value="2. 订阅服务（同步）&lt;br&gt;当消费者客户端启动时，即执行订阅" style="edgeLabel;html=1;align=center;verticalAlign=middle;resizable=0;points=[];" vertex="1" connectable="0" parent="R-IY0XC0HMATTLStd_am-9">
          <mxGeometry x="-0.1514" y="-4" relative="1" as="geometry">
            <mxPoint x="-20.689999999999998" y="-42.26" as="offset" />
          </mxGeometry>
        </mxCell>
        <mxCell id="R-IY0XC0HMATTLStd_am-11" value="3. 通知（异步）&lt;br&gt;发送订阅服务的服务列表信息" style="edgeStyle=none;html=1;endArrow=open;endSize=12;dashed=1;verticalAlign=top;exitX=0.25;exitY=1;exitDx=0;exitDy=0;" edge="1" parent="1" source="R-IY0XC0HMATTLStd_am-3" target="R-IY0XC0HMATTLStd_am-2">
          <mxGeometry width="160" relative="1" as="geometry">
            <mxPoint x="460" y="400" as="sourcePoint" />
            <mxPoint x="620" y="400" as="targetPoint" />
          </mxGeometry>
        </mxCell>
        <mxCell id="R-IY0XC0HMATTLStd_am-13" value="" style="endArrow=classic;html=1;exitX=0.5;exitY=0;exitDx=0;exitDy=0;" edge="1" parent="1" source="R-IY0XC0HMATTLStd_am-1" target="R-IY0XC0HMATTLStd_am-3">
          <mxGeometry width="50" height="50" relative="1" as="geometry">
            <mxPoint x="790" y="460" as="sourcePoint" />
            <mxPoint x="800" y="380" as="targetPoint" />
          </mxGeometry>
        </mxCell>
        <mxCell id="R-IY0XC0HMATTLStd_am-14" value="1. 注册服务（同步）&lt;br&gt;发送可提供的服务列表信息" style="edgeLabel;html=1;align=center;verticalAlign=middle;resizable=0;points=[];" vertex="1" connectable="0" parent="R-IY0XC0HMATTLStd_am-13">
          <mxGeometry x="0.6314" y="-2" relative="1" as="geometry">
            <mxPoint x="59.35" y="42.2" as="offset" />
          </mxGeometry>
        </mxCell>
        <mxCell id="R-IY0XC0HMATTLStd_am-16" value="" style="edgeStyle=none;html=1;endArrow=open;endSize=12;dashed=1;verticalAlign=top;entryX=0.25;entryY=0;entryDx=0;entryDy=0;" edge="1" parent="1" target="R-IY0XC0HMATTLStd_am-4">
          <mxGeometry width="160" relative="1" as="geometry">
            <mxPoint x="420" y="560" as="sourcePoint" />
            <mxPoint x="580" y="560" as="targetPoint" />
          </mxGeometry>
        </mxCell>
        <mxCell id="R-IY0XC0HMATTLStd_am-18" value="5. 统计调用情况（异步）" style="edgeLabel;html=1;align=center;verticalAlign=middle;resizable=0;points=[];" vertex="1" connectable="0" parent="R-IY0XC0HMATTLStd_am-16">
          <mxGeometry x="0.1446" relative="1" as="geometry">
            <mxPoint as="offset" />
          </mxGeometry>
        </mxCell>
        <mxCell id="R-IY0XC0HMATTLStd_am-17" value="5. 统计调用情况（异步）" style="edgeStyle=none;html=1;endArrow=open;endSize=12;dashed=1;verticalAlign=top;exitX=0.5;exitY=1;exitDx=0;exitDy=0;entryX=0.75;entryY=0;entryDx=0;entryDy=0;" edge="1" parent="1" source="R-IY0XC0HMATTLStd_am-1" target="R-IY0XC0HMATTLStd_am-4">
          <mxGeometry width="160" relative="1" as="geometry">
            <mxPoint x="730" y="590" as="sourcePoint" />
            <mxPoint x="890" y="590" as="targetPoint" />
          </mxGeometry>
        </mxCell>
        <mxCell id="R-IY0XC0HMATTLStd_am-20" value="&lt;span&gt;服务提供者&lt;/span&gt;&lt;br&gt;&lt;span&gt;Provider&lt;/span&gt;" style="rounded=0;whiteSpace=wrap;html=1;" vertex="1" parent="1">
          <mxGeometry x="730" y="490" width="140" height="30" as="geometry" />
        </mxCell>
      </root>
    </mxGraphModel>
  </diagram>
</mxfile>
